name D:\school\WTK\thesis\model\3dpredictsim\Results\debug_tmt\Pog_s1_tmtL_bCst_ig24_v3.mot
datacolumns 128
datarows 4
range 0.53458652 0.56666171
endheader
time	pelvis_tilt	pelvis_list	pelvis_rotation	pelvis_tx	pelvis_ty	pelvis_tz	hip_flexion_l	hip_adduction_l	hip_rotation_l	hip_flexion_r	hip_adduction_r	hip_rotation_r	knee_angle_l	knee_angle_r	ankle_angle_l	ankle_angle_r	subtalar_angle_l	subtalar_angle_r	tmt_angle_l	tmt_angle_r	mtp_angle_l	mtp_angle_r	lumbar_extension	lumbar_bending	lumbar_rotation	arm_flex_l	arm_add_l	arm_rot_l	arm_flex_r	arm_add_r	arm_rot_r	elbow_flex_l	elbow_flex_r	pro_sup_l	pro_sup_r	glut_med1_l/activation	glut_med2_l/activation	glut_med3_l/activation	glut_min1_l/activation	glut_min2_l/activation	glut_min3_l/activation	semimem_l/activation	semiten_l/activation	bifemlh_l/activation	bifemsh_l/activation	sar_l/activation	add_long_l/activation	add_brev_l/activation	add_mag1_l/activation	add_mag2_l/activation	add_mag3_l/activation	tfl_l/activation	pect_l/activation	grac_l/activation	glut_max1_l/activation	glut_max2_l/activation	glut_max3_l/activation	iliacus_l/activation	psoas_l/activation	quad_fem_l/activation	gem_l/activation	peri_l/activation	rect_fem_l/activation	vas_med_l/activation	vas_int_l/activation	vas_lat_l/activation	med_gas_l/activation	lat_gas_l/activation	soleus_l/activation	tib_post_l/activation	flex_dig_l/activation	flex_hal_l/activation	tib_ant_l/activation	per_brev_l/activation	per_long_l/activation	per_tert_l/activation	ext_dig_l/activation	ext_hal_l/activation	ercspn_l/activation	intobl_l/activation	extobl_l/activation	glut_med1_r/activation	glut_med2_r/activation	glut_med3_r/activation	glut_min1_r/activation	glut_min2_r/activation	glut_min3_r/activation	semimem_r/activation	semiten_r/activation	bifemlh_r/activation	bifemsh_r/activation	sar_r/activation	add_long_r/activation	add_brev_r/activation	add_mag1_r/activation	add_mag2_r/activation	add_mag3_r/activation	tfl_r/activation	pect_r/activation	grac_r/activation	glut_max1_r/activation	glut_max2_r/activation	glut_max3_r/activation	iliacus_r/activation	psoas_r/activation	quad_fem_r/activation	gem_r/activation	peri_r/activation	rect_fem_r/activation	vas_med_r/activation	vas_int_r/activation	vas_lat_r/activation	med_gas_r/activation	lat_gas_r/activation	soleus_r/activation	tib_post_r/activation	flex_dig_r/activation	flex_hal_r/activation	tib_ant_r/activation	per_brev_r/activation	per_long_r/activation	per_tert_r/activation	ext_dig_r/activation	ext_hal_r/activation	ercspn_r/activation	intobl_r/activation	extobl_r/activation	
          0.53458652	         -2.92984115	          2.24354946	         -5.21611249	          0.66823315	          0.85884701	          0.00223724	         31.51861973	          3.13405415	         -1.80712383	        -18.10005954	         -1.65177953	          6.71023004	        -14.54416690	         -5.72150661	          7.29756708	          1.74607087	         -3.46864125	          8.91081656	          0.00000000	          0.00000000	         -0.13291439	         21.38949101	         -2.00081430	         -0.54070313	          1.91326821	         -7.73995808	        -13.50500723	         12.50114004	          9.28280486	        -13.45178265	         18.97096425	         11.22171053	         31.81005383	         86.51662706	         86.51662706	          0.11668768	          0.05000004	          0.05890974	          0.05000002	          0.05000003	          0.05000014	          0.05890978	          0.05890987	          0.20708959	          0.05000011	          0.05000042	          0.09120712	          0.14763868	          0.21272342	          0.16011127	          0.11233143	          0.05890971	          0.05001754	          0.05891181	          0.06879537	          0.06940720	          0.11202516	          0.05000002	          0.05000003	          0.25209881	          0.05001003	          0.05000015	          0.05000006	          0.09048838	          0.09332953	          0.07934715	          0.05890974	          0.05253278	          0.05890976	          0.05000001	          0.05000029	          0.05000179	          0.49469057	          0.38207486	          0.22288446	          0.29136307	          0.54110422	          0.28331671	          0.08155199	          0.11158317	          0.11674289	          0.32315762	          0.11351940	          0.08177533	          0.33706600	          0.22229955	          0.11798781	          0.05000029	          0.05000005	          0.05000003	          0.07869886	          0.11353107	          0.05000003	          0.05000003	          0.05000004	          0.05000013	          0.05000008	          0.33614122	          0.05000017	          0.05000016	          0.05000728	          0.05000120	          0.05000035	          0.39659187	          0.64096530	          0.05000011	          0.05000027	          0.06940705	          0.21198374	          0.05000024	          0.05000015	          0.05000015	          0.33905567	          0.45576955	          0.31566598	          0.27419567	          0.28067902	          0.39136404	          0.05000000	          0.06048516	          0.15864900	          0.05000004	          0.05000001	          0.05000005	          0.05000000	          0.05000000	          0.05000000	
          0.54527825	         -2.92573190	          2.33184947	         -5.51918602	          0.68406987	          0.85777425	          0.00204473	         30.94960839	          3.46148835	         -1.59745928	        -18.00030574	         -1.94656140	          6.47280504	        -14.37945445	         -7.59300098	          6.74094517	          1.04762929	         -3.94173295	          9.81035380	          0.00000000	          0.00000000	         -0.11187091	         22.43277177	         -1.81910282	         -0.75327778	          1.98548647	         -8.77116148	        -13.49864337	         12.51795163	          9.17383761	        -13.45813757	         19.08493653	         11.09544788	         32.95743910	         86.51662706	         86.51662706	          0.09903934	          0.05890974	          0.05000003	          0.05890996	          0.05890980	          0.05000022	          0.05000002	          0.05000015	          0.17841518	          0.05000017	          0.05000023	          0.07940822	          0.12530926	          0.22073879	          0.17311809	          0.10598629	          0.05000007	          0.05000059	          0.05000189	          0.05839066	          0.05890978	          0.10406140	          0.05013115	          0.05010899	          0.48345424	          0.13530051	          0.08694370	          0.06940728	          0.18272918	          0.18584561	          0.16139829	          0.05000000	          0.05000000	          0.05000000	          0.05000002	          0.05890982	          0.05000036	          0.54840025	          0.34471346	          0.23117548	          0.46528957	          0.58318221	          0.25597620	          0.06921771	          0.09470684	          0.09908618	          0.27428186	          0.09635023	          0.06940727	          0.28608667	          0.18867800	          0.10014282	          0.05000085	          0.05000012	          0.05000014	          0.06679611	          0.09636017	          0.10763671	          0.05000089	          0.05000320	          0.05000137	          0.05000420	          0.28530177	          0.05120280	          0.05000054	          0.05000058	          0.05000047	          0.05000042	          0.33660957	          0.55790084	          0.05000012	          0.05885726	          0.05890981	          0.17992242	          0.05000098	          0.16041997	          0.14456645	          0.28777539	          0.38683695	          0.27484297	          0.25705722	          0.23822976	          0.33219343	          0.05000000	          0.05699313	          0.16553794	          0.05000003	          0.05000000	          0.05000003	          0.05000000	          0.06940721	          0.05000000	
          0.55596998	         -2.91741106	          2.41418596	         -5.80001774	          0.70021673	          0.85673516	          0.00185710	         30.26156725	          3.74536386	         -1.32927944	        -17.82659720	         -2.23375933	          6.22651214	        -14.78274821	         -9.59931823	          6.10196449	          0.19071905	         -4.43629306	         10.67320675	          0.00000000	          0.00000000	         -0.15059527	         23.34214960	         -1.61353517	         -0.96615149	          2.04870787	         -9.82986143	        -13.49382763	         12.53863245	          8.97497722	        -13.46492266	         19.13270843	         11.04159178	         34.07262428	         86.51662706	         86.51662706	          0.25440221	          0.05000001	          0.28500852	          0.05000017	          0.05000005	          0.18580042	          0.07038241	          0.05000003	          0.15928451	          0.05000001	          0.05000012	          0.08177565	          0.21661191	          0.18735375	          0.14693589	          0.12950788	          0.05000013	          0.05891740	          0.10212768	          0.05000002	          0.05000005	          0.12197556	          0.05609313	          0.05000025	          0.41033450	          0.11483709	          0.16164472	          0.05890982	          0.15509244	          0.15773753	          0.13698772	          0.06606803	          0.06940537	          0.06021669	          0.05890977	          0.05000008	          0.05000020	          0.46545777	          0.34760163	          0.19621151	          0.39491715	          0.57059922	          0.21726123	          0.05874892	          0.09845519	          0.08409995	          0.31746228	          0.08177780	          0.05890982	          0.24281772	          0.16014152	          0.08499679	          0.05000046	          0.05000016	          0.05000016	          0.05669358	          0.08178628	          0.13628500	          0.09392046	          0.05891000	          0.05890973	          0.05890971	          0.24215155	          0.08178234	          0.05003440	          0.05000253	          0.05000212	          0.05012703	          0.28569928	          0.53378574	          0.05791473	          0.05000032	          0.05000006	          0.15271016	          0.10918696	          0.13615754	          0.12270182	          0.24425097	          0.32833002	          0.23327450	          0.21817879	          0.20219891	          0.28195108	          0.05000000	          0.05000013	          0.18399839	          0.05000002	          0.05000000	          0.05000002	          0.05420001	          0.05890976	          0.05000015	
          0.56666171	         -2.90651363	          2.49479513	         -6.05083127	          0.71652486	          0.85573053	          0.00165888	         29.44750943	          3.99830467	         -1.05059131	        -17.55839696	         -2.51293178	          5.97743144	        -15.24264731	        -11.75665235	          5.65621547	         -0.81518159	         -4.92611158	         11.48087008	          0.00000000	          0.00000000	         -0.16155725	         24.06991350	         -1.39906173	         -1.18318673	          2.10256503	        -10.87678246	        -13.49191554	         12.58274832	          8.70622620	        -13.47427445	         19.12276534	         11.03377829	         35.14779855	         86.51662706	         86.51662706	          0.30670261	          0.27978489	          0.35832311	          0.18910368	          0.20444613	          0.15769948	          0.05973749	          0.09417068	          0.13519363	          0.08179470	          0.05890952	          0.06940755	          0.18385058	          0.15901757	          0.12471271	          0.14658974	          0.05000009	          0.05000655	          0.08668176	          0.21541228	          0.16407692	          0.12070300	          0.05000001	          0.05000002	          0.34827371	          0.09746868	          0.13719694	          0.05000004	          0.13163559	          0.13388064	          0.11626911	          0.05607561	          0.05890820	          0.05110925	          0.05000000	          0.05890978	          0.05066367	          0.59467134	          0.43615010	          0.22690927	          0.64672508	          0.64137534	          0.34002772	          0.07873569	          0.09161575	          0.07138030	          0.31143047	          0.06940937	          0.05000005	          0.34116328	          0.13592102	          0.07214151	          0.05000071	          0.05000004	          0.05000003	          0.05000004	          0.06941664	          0.12798457	          0.07971555	          0.05000026	          0.05000022	          0.05000011	          0.25508415	          0.06941375	          0.05000013	          0.05000036	          0.05000022	          0.05000012	          0.24248888	          0.49770308	          0.05000002	          0.05000017	          0.05000013	          0.13374399	          0.09267318	          0.11556474	          0.13374360	          0.20730937	          0.27867194	          0.19799303	          0.18518047	          0.17161749	          0.23930758	          0.05000000	          0.09435350	          0.18083112	          0.05000003	          0.05000002	          0.05000003	          0.07063772	          0.05000000	          0.05000000	
